<svg width="48" height="48" viewBox="0 0 48 48" fill="none" xmlns="http://www.w3.org/2000/svg">
<rect width="48" height="48" rx="24" fill="#161D22"/>
<rect x="38" width="10" height="10" rx="5" fill="#99F9EA"/>
<path d="M18.6994 21.3984C18.6994 19.9666 19.2682 18.5935 20.2806 17.5811C21.293 16.5686 22.6662 15.9999 24.098 15.9999C25.5297 15.9999 26.9029 16.5686 27.9153 17.5811C28.9277 18.5935 29.4965 19.9666 29.4965 21.3984C29.4965 27.6967 32.1958 29.4963 32.1958 29.4963H16.0001C16.0001 29.4963 18.6994 27.6967 18.6994 21.3984Z" stroke="white" stroke-linecap="round" stroke-linejoin="round"/>
<path d="M22.5685 31.0956C22.7191 31.3695 22.9405 31.5979 23.2096 31.7571C23.4786 31.9162 23.7855 32.0001 24.0981 32.0001C24.4107 32.0001 24.7175 31.9162 24.9866 31.7571C25.2557 31.5979 25.4771 31.3695 25.6277 31.0956" stroke="white" stroke-width="1.22519" stroke-linecap="round" stroke-linejoin="round"/>
</svg>
