<svg width="48" height="48" viewBox="0 0 48 48" fill="none" xmlns="http://www.w3.org/2000/svg">
<rect width="48" height="48" rx="24" fill="#99F9EA"/>
<path d="M19.2627 24.624C21.5343 24.624 23.376 26.4657 23.376 28.7373C23.3757 31.0087 21.5342 32.8496 19.2627 32.8496C16.9914 32.8494 15.1506 31.0086 15.1504 28.7373C15.1504 26.4658 16.9913 24.6243 19.2627 24.624ZM28.7373 24.624C31.0087 24.6243 32.8496 26.4658 32.8496 28.7373C32.8494 31.0086 31.0086 32.8494 28.7373 32.8496C26.4658 32.8496 24.6243 31.0087 24.624 28.7373C24.624 26.4657 26.4657 24.624 28.7373 24.624ZM19.2627 26.2188C17.872 26.219 16.7451 27.3466 16.7451 28.7373C16.7454 30.1278 17.8722 31.2546 19.2627 31.2549C20.6534 31.2549 21.781 30.128 21.7812 28.7373C21.7812 27.3464 20.6536 26.2188 19.2627 26.2188ZM28.7373 26.2188C27.3464 26.2188 26.2188 27.3464 26.2188 28.7373C26.219 30.128 27.3466 31.2549 28.7373 31.2549C30.1278 31.2546 31.2546 30.1278 31.2549 28.7373C31.2549 27.3466 30.128 26.219 28.7373 26.2188ZM19.2627 15.1504C21.5342 15.1504 23.3757 16.9913 23.376 19.2627C23.376 21.5343 21.5343 23.376 19.2627 23.376C16.9913 23.3757 15.1504 21.5342 15.1504 19.2627C15.1506 16.9914 16.9914 15.1506 19.2627 15.1504ZM28.7373 15.1504C31.0086 15.1506 32.8494 16.9914 32.8496 19.2627C32.8496 21.5342 31.0087 23.3757 28.7373 23.376C26.4657 23.376 24.624 21.5343 24.624 19.2627C24.6243 16.9913 26.4658 15.1504 28.7373 15.1504ZM19.2627 16.7451C17.8722 16.7454 16.7454 17.8722 16.7451 19.2627C16.7451 20.6534 17.872 21.781 19.2627 21.7812C20.6536 21.7812 21.7812 20.6536 21.7812 19.2627C21.781 17.872 20.6534 16.7451 19.2627 16.7451ZM28.7373 16.7451C27.3466 16.7451 26.219 17.872 26.2188 19.2627C26.2188 20.6536 27.3464 21.7812 28.7373 21.7812C30.128 21.781 31.2549 20.6534 31.2549 19.2627C31.2546 17.8722 30.1278 16.7454 28.7373 16.7451Z" fill="#081212" stroke="#99F9EA" stroke-width="0.3"/>
</svg>
