<svg width="20" height="20" viewBox="0 0 20 20" fill="none" xmlns="http://www.w3.org/2000/svg">
<path d="M17.1 8.22925L9.44104 15.6754C8.50275 16.5876 7.23017 17.1 5.90323 17.1C4.5763 17.1 3.30371 16.5876 2.36543 15.6754C1.42715 14.7631 0.900024 13.5259 0.900024 12.2359C0.900024 10.9458 1.42715 9.70862 2.36543 8.79642L9.50771 1.85267C10.1332 1.24346 10.9821 0.900785 11.8675 0.900026C12.7529 0.899266 13.6023 1.24049 14.2289 1.84862C14.8556 2.45676 15.208 3.28199 15.2088 4.14278C15.2096 5.00358 14.8586 5.82942 14.2331 6.43863L7.07417 13.3824C6.76141 13.6864 6.33721 13.8573 5.8949 13.8573C5.45259 13.8573 5.02839 13.6864 4.71563 13.3824C4.40287 13.0783 4.22716 12.6659 4.22716 12.2359C4.22716 11.8059 4.40287 11.3935 4.71563 11.0894L11.7912 4.21857" stroke="white" stroke-linecap="round" stroke-linejoin="round"/>
</svg>
