<svg width="20" height="20" viewBox="0 0 20 20" fill="none" xmlns="http://www.w3.org/2000/svg">
<path d="M17.9531 13.5136C17.8859 15.188 17.7694 16.9146 17.6494 18.6494H15.1016C15.0443 17.7804 14.9976 16.9232 14.9521 16.0634C14.9075 15.2193 14.8609 14.3726 14.8047 13.5136H17.9531ZM11.6387 13.5136C11.5825 14.3726 11.5359 15.2193 11.4912 16.0634C11.4457 16.9232 11.399 17.7804 11.3418 18.6494H8.79395C8.67396 16.9146 8.55748 15.188 8.49023 13.5136H11.6387ZM5.26367 13.5136C5.20746 14.3726 5.16086 15.2193 5.11621 16.0634C5.07073 16.9232 5.02404 17.7804 4.9668 18.6494H2.41895C2.29896 16.9146 2.18248 15.188 2.11523 13.5136H5.26367ZM15.5137 6.55267V11.2636H17.2363V6.55267H18.6504V11.6884H14.0996V6.55267H15.5137ZM9.17285 6.55267V11.2636H10.8955V6.55267H12.3086V11.6884H7.75879V6.55267H9.17285ZM2.76367 6.55267V11.2636H4.48633V6.55267H5.90039V11.6884H1.34961V6.55267H2.76367ZM18.3516 4.58783H14.4092L16.4053 1.6308L18.3516 4.58783ZM12 4.58783H8.05762L10.0029 1.6308L12 4.58783ZM5.65918 4.58783H1.7168L3.66211 1.6308L5.65918 4.58783Z" stroke="#96999E" stroke-width="0.7"/>
</svg>
