<svg width="18" height="18" viewBox="0 0 18 18" fill="none" xmlns="http://www.w3.org/2000/svg">
<path fill-rule="evenodd" clip-rule="evenodd" d="M2.355 2.35494C2.71034 1.99961 3.19227 1.79999 3.69479 1.79999H11.6527C11.7532 1.79999 11.8496 1.83991 11.9206 1.91098L16.0891 6.0794C16.1601 6.15047 16.2 6.24685 16.2 6.34736V14.3053C16.2 14.8078 16.0004 15.2897 15.6451 15.645C15.2898 16.0004 14.8078 16.2 14.3053 16.2H3.69479C2.65181 16.2 1.80005 15.3482 1.80005 14.3053V3.69472C1.80005 3.19221 1.99967 2.71028 2.355 2.35494ZM3.69479 2.55788C3.39328 2.55788 3.10412 2.67766 2.89092 2.89086C2.67772 3.10406 2.55794 3.39322 2.55794 3.69472V14.3053C2.55794 14.9296 3.07039 15.4421 3.69479 15.4421H14.3053C14.6068 15.4421 14.896 15.3223 15.1092 15.1091C15.3224 14.8959 15.4422 14.6068 15.4422 14.3053V6.50432L11.4957 2.55788H3.69479Z" fill="#6D6E6E"/>
<path fill-rule="evenodd" clip-rule="evenodd" d="M11.2737 1.79999C11.483 1.79999 11.6527 1.96965 11.6527 2.17894V6.34736H15.8211C16.0304 6.34736 16.2 6.51702 16.2 6.7263C16.2 6.93559 16.0304 7.10525 15.8211 7.10525H11.2737C11.0644 7.10525 10.8948 6.93559 10.8948 6.7263V2.17894C10.8948 1.96965 11.0644 1.79999 11.2737 1.79999Z" fill="#6D6E6E"/>
<path d="M6.80002 9.81818C6.80002 10.2701 6.48662 10.6364 6.10002 10.6364C5.71343 10.6364 5.40002 10.2701 5.40002 9.81818C5.40002 9.36631 5.71343 9 6.10002 9C6.48662 9 6.80002 9.36631 6.80002 9.81818Z" fill="#D9D9D9"/>
<path d="M11.7 9.81818C11.7 10.2701 11.3866 10.6364 11 10.6364C10.6134 10.6364 10.3 10.2701 10.3 9.81818C10.3 9.36631 10.6134 9 11 9C11.3866 9 11.7 9.36631 11.7 9.81818Z" fill="#D9D9D9"/>
<path fill-rule="evenodd" clip-rule="evenodd" d="M10.5007 11.9376C10.6591 12.0672 10.6976 12.3222 10.5868 12.5073L10.3 12.2727C10.5868 12.5073 10.5868 12.5073 10.5868 12.5073L10.586 12.5086L10.585 12.5102L10.5825 12.5143L10.5752 12.526C10.5693 12.5352 10.5614 12.5474 10.5514 12.562C10.5316 12.5913 10.5035 12.6308 10.4672 12.677C10.395 12.7691 10.289 12.8899 10.1496 13.0105C9.87074 13.252 9.44939 13.5 8.90002 13.5C8.38162 13.5 7.96119 13.2481 7.68159 13.0147C7.54028 12.8967 7.42941 12.779 7.35316 12.6898C7.31488 12.6451 7.28489 12.6071 7.26372 12.5791C7.25312 12.5651 7.2447 12.5536 7.23852 12.545L7.23093 12.5343L7.2284 12.5307L7.22745 12.5294L7.22688 12.5285C7.22688 12.5285 7.22672 12.5283 7.50002 12.2727L7.22688 12.5285C7.10613 12.3521 7.13044 12.0944 7.28138 11.9533C7.43194 11.8125 7.65147 11.8406 7.77242 12.0158L7.77452 12.0188C7.77695 12.0222 7.78138 12.0283 7.78773 12.0366C7.80047 12.0534 7.82079 12.0793 7.84814 12.1113C7.90314 12.1756 7.98476 12.2624 8.08846 12.3489C8.29886 12.5246 8.57843 12.6818 8.90002 12.6818C9.26066 12.6818 9.53931 12.5207 9.73294 12.3531C9.82983 12.2692 9.90313 12.1855 9.95124 12.1241C9.97516 12.0936 9.99245 12.0692 10.0029 12.0537C10.0082 12.046 10.0117 12.0406 10.0134 12.0379L10.0145 12.0361L10.0139 12.0371L10.0134 12.0379C10.1243 11.853 10.3425 11.8081 10.5007 11.9376Z" fill="#6D6E6E"/>
<path fill-rule="evenodd" clip-rule="evenodd" d="M6.10002 10.6364C6.48662 10.6364 6.80002 10.2701 6.80002 9.81818C6.80002 9.36631 6.48662 9 6.10002 9C5.71343 9 5.40002 9.36631 5.40002 9.81818C5.40002 10.2701 5.71343 10.6364 6.10002 10.6364Z" fill="#6D6E6E"/>
<path fill-rule="evenodd" clip-rule="evenodd" d="M11 10.6364C11.3866 10.6364 11.7 10.2701 11.7 9.81818C11.7 9.36631 11.3866 9 11 9C10.6134 9 10.3 9.36631 10.3 9.81818C10.3 10.2701 10.6134 10.6364 11 10.6364Z" fill="#6D6E6E"/>
</svg>
