<svg width="40" height="40" viewBox="0 0 40 40" fill="none" xmlns="http://www.w3.org/2000/svg">
<path d="M25.3333 19.5H21.6666M23.5 17.6667V21.3333M17.0833 20.4167H17.0736M14.3333 18.5833H14.3236M14.9566 14H24.71C25.6172 14.0002 26.4922 14.3368 27.1657 14.9446C27.8392 15.5524 28.2635 16.3884 28.3565 17.2908C28.362 17.3385 28.3656 17.3834 28.372 17.4302C28.4463 18.048 29 22.668 29 24.0833C29 24.8127 28.7102 25.5122 28.1945 26.0279C27.6788 26.5436 26.9793 26.8333 26.25 26.8333C25.3333 26.8333 24.875 26.375 24.4166 25.9167L23.1205 24.6205C22.7767 24.2767 22.3105 24.0834 21.8243 24.0833H17.8423C17.3561 24.0834 16.8899 24.2767 16.5461 24.6205L15.25 25.9167C14.7916 26.375 14.3333 26.8333 13.4166 26.8333C12.6873 26.8333 11.9878 26.5436 11.4721 26.0279C10.9564 25.5122 10.6666 24.8127 10.6666 24.0833C10.6666 22.6671 11.2203 18.048 11.2945 17.4302C11.301 17.3843 11.3046 17.3385 11.3101 17.2917C11.4029 16.3891 11.8271 15.553 12.5006 14.9449C13.1742 14.3369 14.0492 14.0002 14.9566 14Z" stroke="#99F9EA" stroke-linecap="round" stroke-linejoin="round"/>
</svg>
