<svg width="20" height="20" viewBox="0 0 20 20" fill="none" xmlns="http://www.w3.org/2000/svg">
<path d="M0.864014 11.984V7.73597C0.864014 6.39197 1.53601 5.71997 2.88001 5.71997H6.34801L7.15201 6.34397V7.27997H2.95201C2.71201 7.27997 2.59201 7.39997 2.59201 7.63997V12.08C2.59201 12.32 2.71201 12.44 2.95201 12.44H5.66401V10.52H4.08001V8.95997H7.39201V14H2.88001C1.53601 14 0.864014 13.328 0.864014 11.984Z" fill="#6D6E6E"/>
<path d="M9.11683 14V5.71997H10.8448V14H9.11683Z" fill="#6D6E6E"/>
<path d="M12.8082 14V5.71997H18.4722V7.27997H14.5362V9.31997H18.1122V10.88H14.5362V14H12.8082Z" fill="#6D6E6E"/>
</svg>
