<svg width="18" height="18" viewBox="0 0 18 18" fill="none" xmlns="http://www.w3.org/2000/svg">
<path d="M4.2627 9.97363C6.34103 9.97363 8.02637 11.659 8.02637 13.7373C8.02612 15.8154 6.34088 17.5 4.2627 17.5C2.18473 17.4998 0.50025 15.8153 0.5 13.7373C0.5 11.6591 2.18457 9.97388 4.2627 9.97363ZM13.7373 9.97363C15.8154 9.97388 17.5 11.6591 17.5 13.7373C17.4998 15.8153 15.8153 17.4998 13.7373 17.5C11.6591 17.5 9.97388 15.8154 9.97363 13.7373C9.97363 11.659 11.659 9.97363 13.7373 9.97363ZM4.2627 10.8682C2.67872 10.8684 1.39453 12.1533 1.39453 13.7373C1.39478 15.3211 2.67888 16.6052 4.2627 16.6055C5.84673 16.6055 7.13159 15.3213 7.13184 13.7373C7.13184 12.1531 5.84688 10.8682 4.2627 10.8682ZM13.7373 10.8682C12.1531 10.8682 10.8682 12.1531 10.8682 13.7373C10.8684 15.3213 12.1533 16.6055 13.7373 16.6055C15.3211 16.6052 16.6052 15.3211 16.6055 13.7373C16.6055 12.1533 15.3213 10.8684 13.7373 10.8682ZM4.2627 0.5C6.34087 0.5 8.02612 2.18457 8.02637 4.2627C8.02637 6.34103 6.34103 8.02637 4.2627 8.02637C2.18457 8.02612 0.5 6.34087 0.5 4.2627C0.50025 2.18473 2.18473 0.50025 4.2627 0.5ZM13.7373 0.5C15.8153 0.50025 17.4998 2.18473 17.5 4.2627C17.5 6.34088 15.8154 8.02612 13.7373 8.02637C11.659 8.02637 9.97363 6.34103 9.97363 4.2627C9.97388 2.18457 11.6591 0.5 13.7373 0.5ZM4.2627 1.39453C2.67888 1.39478 1.39478 2.67888 1.39453 4.2627C1.39453 5.84672 2.67872 7.13159 4.2627 7.13184C5.84688 7.13184 7.13184 5.84688 7.13184 4.2627C7.13159 2.67872 5.84672 1.39453 4.2627 1.39453ZM13.7373 1.39453C12.1533 1.39453 10.8684 2.67872 10.8682 4.2627C10.8682 5.84688 12.1531 7.13184 13.7373 7.13184C15.3213 7.13159 16.6055 5.84673 16.6055 4.2627C16.6052 2.67888 15.3211 1.39478 13.7373 1.39453Z" stroke="#96999E"/>
</svg>
