<svg width="20" height="20" viewBox="0 0 20 20" fill="none" xmlns="http://www.w3.org/2000/svg">
<mask id="path-1-inside-1_3_10353" fill="white">
<path d="M8.58984 14.5557C8.18689 15.0001 7.71644 15.4443 7.31348 15.8887C7.78347 16.333 8.18631 16.7774 8.65625 17.2217C8.18611 17.6661 7.71624 18.1854 7.24609 18.6299C6.50729 17.8891 5.76886 17.0736 4.96289 16.2588C4.08982 17.1476 3.21682 18.1112 2.34375 19C1.87367 18.5556 1.47006 18.1114 1 17.667C1.87308 16.7782 2.74606 15.8888 3.61914 15C2.81329 14.1853 2.07464 13.3705 1.33594 12.6299C1.80609 12.1114 2.27594 11.6661 2.74609 11.2217C3.14908 11.6661 3.55231 12.1112 4.02246 12.5557C4.4926 12.0372 4.89585 11.5929 5.29883 11.1484C6.44049 12.3335 7.51532 13.4447 8.58984 14.5557ZM4.62695 1C4.8282 1.00004 4.89517 1.07443 5.0293 1.14844C8.58897 4.85211 12.2167 8.55511 15.7764 12.2588C15.8435 12.3329 15.9104 12.4074 15.9775 12.4814C16.4477 11.9629 16.9183 11.5187 17.3213 11.0742C17.7913 11.5185 18.1941 11.9629 18.6641 12.4072C17.9254 13.1478 17.1196 13.9627 16.3809 14.7773C17.254 15.6662 18.1269 16.6295 19 17.4443C18.4628 18.1109 18.0599 18.5556 17.5898 19C16.7167 18.1111 15.8431 17.2219 15.0371 16.333C14.2311 17.1478 13.4927 17.9634 12.7539 18.7041C12.2838 18.1856 11.8131 17.7403 11.4102 17.2959C11.8131 16.8515 12.2836 16.4073 12.6865 15.9629C12.6195 15.889 12.5524 15.8151 12.4854 15.7412C8.85858 12.0376 5.29865 8.33349 1.67188 4.62988C1.53755 4.48173 1.53711 4.40694 1.53711 4.25879V1H4.62695ZM18.4629 4.33301C18.4629 4.40708 18.3953 4.55581 18.3281 4.62988C17.1193 5.88901 15.9102 7.07388 14.7686 8.33301C14.7038 8.33307 14.7012 8.4025 14.7012 8.40723C13.5595 7.22219 12.4854 6.11082 11.3438 4.92578C11.4107 4.92542 11.478 4.85216 11.5449 4.77832C12.6866 3.59323 13.8954 2.40775 15.0371 1.22266C15.1043 1.14859 15.2387 1.07424 15.373 1.07422H18.4629V4.33301Z"/>
</mask>
<path d="M8.58984 14.5557L9.1825 15.093L9.68573 14.538L9.16489 13.9995L8.58984 14.5557ZM7.31348 15.8887L6.72083 15.3513L6.19451 15.9318L6.76391 16.47L7.31348 15.8887ZM8.65625 17.2217L9.20582 17.803L9.82077 17.2217L9.20585 16.6404L8.65625 17.2217ZM7.24609 18.6299L6.67967 19.1948L7.22968 19.7463L7.79566 19.2112L7.24609 18.6299ZM4.96289 16.2588L5.53165 15.6962L4.96091 15.1192L4.39217 15.6982L4.96289 16.2588ZM2.34375 19L1.79418 19.5814L2.36451 20.1205L2.91447 19.5606L2.34375 19ZM1 17.667L0.42928 17.1064L-0.142158 17.6881L0.450419 18.2483L1 17.667ZM3.61914 15L4.18986 15.5606L4.74245 14.998L4.18791 14.4374L3.61914 15ZM1.33594 12.6299L0.743286 12.0925L0.23224 12.6561L0.769507 13.1948L1.33594 12.6299ZM2.74609 11.2217L3.33875 10.6843L2.79009 10.0792L2.19652 10.6403L2.74609 11.2217ZM4.02246 12.5557L3.47289 13.137L4.06646 13.6981L4.61511 13.093L4.02246 12.5557ZM5.29883 11.1484L5.87496 10.5934L5.28112 9.97698L4.70618 10.6111L5.29883 11.1484ZM4.62695 1L4.62711 0.2H4.62695V1ZM5.0293 1.14844L5.60608 0.594076L5.52201 0.506604L5.41579 0.447991L5.0293 1.14844ZM15.7764 12.2588L16.369 11.7214L16.3612 11.7128L16.3532 11.7044L15.7764 12.2588ZM15.9775 12.4814L15.3849 13.0188L15.9775 13.6724L16.5702 13.0188L15.9775 12.4814ZM17.3213 11.0742L17.8709 10.4929L17.2773 9.93173L16.7286 10.5369L17.3213 11.0742ZM18.6641 12.4072L19.2305 12.9722L19.8108 12.3904L19.2136 11.8259L18.6641 12.4072ZM16.3809 14.7773L15.7882 14.24L15.281 14.7993L15.8101 15.3379L16.3809 14.7773ZM19 17.4443L19.6229 17.9464L20.0898 17.3671L19.5458 16.8595L19 17.4443ZM17.5898 19L17.0191 19.5606L17.5691 20.1205L18.1394 19.5813L17.5898 19ZM15.0371 16.333L15.6298 15.7956L15.0624 15.1699L14.4683 15.7704L15.0371 16.333ZM12.7539 18.7041L12.1613 19.2415L12.7263 19.8646L13.3203 19.269L12.7539 18.7041ZM11.4102 17.2959L10.8175 16.7585L10.3303 17.2959L10.8175 17.8333L11.4102 17.2959ZM12.6865 15.9629L13.2792 16.5003L13.7664 15.9629L13.2792 15.4255L12.6865 15.9629ZM12.4854 15.7412L13.078 15.2038L13.0677 15.1925L13.0569 15.1815L12.4854 15.7412ZM1.67188 4.62988L1.07922 5.16725L1.08954 5.17863L1.10029 5.18961L1.67188 4.62988ZM1.53711 1V0.2H0.737109V1H1.53711ZM18.3281 4.62988L18.9052 5.18393L18.9131 5.1757L18.9208 5.16725L18.3281 4.62988ZM14.7686 8.33301L14.7693 9.13301L15.1234 9.13268L15.3612 8.87038L14.7686 8.33301ZM14.7012 8.40723L14.125 8.96227L15.4698 10.3582L15.5011 8.42011L14.7012 8.40723ZM11.3438 4.92578L11.3395 4.12579L9.47183 4.13579L10.7676 5.48082L11.3438 4.92578ZM11.5449 4.77832L10.9688 4.22328L10.9604 4.23199L10.9523 4.24095L11.5449 4.77832ZM15.0371 1.22266L15.6132 1.7777L15.6216 1.76899L15.6298 1.76002L15.0371 1.22266ZM15.373 1.07422V0.274219H15.3729L15.373 1.07422ZM18.4629 1.07422H19.2629V0.274219H18.4629V1.07422ZM8.58984 14.5557L7.99719 14.0183C7.80844 14.2265 7.60168 14.437 7.38112 14.6614C7.16497 14.8813 6.93503 15.1151 6.72083 15.3513L7.31348 15.8887L7.90612 16.426C8.09488 16.2179 8.30165 16.0073 8.5222 15.783C8.73836 15.563 8.9683 15.3293 9.1825 15.093L8.58984 14.5557ZM7.31348 15.8887L6.76391 16.47C6.98642 16.6804 7.19447 16.8921 7.41411 17.1157C7.63087 17.3364 7.85921 17.5691 8.10665 17.803L8.65625 17.2217L9.20585 16.6404C8.98335 16.43 8.7753 16.2183 8.55565 15.9946C8.33888 15.7739 8.11053 15.5413 7.86305 15.3073L7.31348 15.8887ZM8.65625 17.2217L8.10668 16.6403C7.85773 16.8757 7.61125 17.1285 7.37847 17.3672C7.14124 17.6104 6.91772 17.8394 6.69652 18.0485L7.24609 18.6299L7.79566 19.2112C8.04461 18.9759 8.29109 18.723 8.52387 18.4844C8.7611 18.2411 8.98462 18.0121 9.20582 17.803L8.65625 17.2217ZM7.24609 18.6299L7.81252 18.0649C7.4514 17.7029 7.08894 17.3211 6.71019 16.9217C6.33361 16.5245 5.94162 16.1107 5.53165 15.6962L4.96289 16.2588L4.39413 16.8214C4.79013 17.2217 5.17034 17.6231 5.54916 18.0226C5.92582 18.4198 6.30198 18.8162 6.67967 19.1948L7.24609 18.6299ZM4.96289 16.2588L4.39217 15.6982C3.94887 16.1495 3.50666 16.6187 3.07118 17.0807C2.63363 17.5448 2.2028 18.0019 1.77303 18.4394L2.34375 19L2.91447 19.5606C3.35777 19.1093 3.79998 18.6401 4.23546 18.1781C4.67301 17.7139 5.10384 17.2569 5.53361 16.8194L4.96289 16.2588ZM2.34375 19L2.89332 18.4186C2.67058 18.2081 2.46217 17.9962 2.24233 17.7726C2.02534 17.5519 1.79691 17.3195 1.54958 17.0856L1 17.667L0.450419 18.2483C0.673152 18.4589 0.881561 18.6708 1.1014 18.8944C1.3184 19.1151 1.54684 19.3475 1.79418 19.5814L2.34375 19ZM1 17.667L1.57072 18.2276C2.00731 17.7831 2.44388 17.3385 2.88038 16.894C3.31691 16.4495 3.75338 16.005 4.18986 15.5606L3.61914 15L3.04842 14.4394C2.61183 14.8839 2.17526 15.3285 1.73876 15.773C1.30223 16.2175 0.865765 16.662 0.42928 17.1064L1 17.667ZM3.61914 15L4.18791 14.4374C3.79186 14.037 3.41154 13.6358 3.0327 13.2365C2.65599 12.8395 2.2799 12.4435 1.90237 12.0649L1.33594 12.6299L0.769507 13.1948C1.13068 13.5569 1.49326 13.9386 1.87201 14.3378C2.24863 14.7347 2.64057 15.1483 3.05038 15.5626L3.61914 15ZM1.33594 12.6299L1.92859 13.1673C2.37525 12.6746 2.82376 12.2491 3.29566 11.803L2.74609 11.2217L2.19652 10.6403C1.72812 11.0831 1.23693 11.5481 0.743286 12.0925L1.33594 12.6299ZM2.74609 11.2217L2.15344 11.759C2.55391 12.2007 2.97697 12.6682 3.47289 13.137L4.02246 12.5557L4.57203 11.9743C4.12765 11.5542 3.74424 11.1315 3.33875 10.6843L2.74609 11.2217ZM4.02246 12.5557L4.61511 13.093C4.85011 12.8339 5.0684 12.5932 5.27835 12.3618C5.48829 12.1304 5.68992 11.9081 5.89148 11.6858L5.29883 11.1484L4.70618 10.6111C4.50477 10.8332 4.30328 11.0553 4.09331 11.2868C3.88336 11.5182 3.66495 11.759 3.42981 12.0183L4.02246 12.5557ZM5.29883 11.1484L4.72269 11.7035C5.865 12.8892 6.94038 14.0009 8.0148 15.1118L8.58984 14.5557L9.16489 13.9995C8.09027 12.8884 7.01599 11.7778 5.87496 10.5934L5.29883 11.1484ZM4.62695 1L4.62679 1.8C4.62709 1.8 4.61025 1.79995 4.58259 1.79381C4.56912 1.79083 4.55544 1.78691 4.54206 1.78221C4.52877 1.77754 4.51793 1.77285 4.51017 1.76916C4.50274 1.76563 4.49896 1.76342 4.50044 1.76426C4.50254 1.76545 4.50728 1.76824 4.51929 1.77561C4.52592 1.77969 4.53074 1.78268 4.5398 1.78826C4.54773 1.79315 4.55721 1.79898 4.56747 1.80519C4.58814 1.8177 4.61363 1.83279 4.64281 1.84888L5.0293 1.14844L5.41579 0.447991C5.40323 0.441064 5.39527 0.435958 5.357 0.412442C5.32606 0.393428 5.26756 0.357577 5.19641 0.323799C5.02722 0.243466 4.8426 0.200043 4.62711 0.2L4.62695 1ZM5.0293 1.14844L4.45251 1.7028C6.2339 3.55625 8.03209 5.4093 9.82871 7.26074C11.6258 9.11264 13.4213 10.9629 15.1996 12.8132L15.7764 12.2588L16.3532 11.7044C14.5718 9.85097 12.7736 7.99793 10.977 6.14649C9.17988 4.29459 7.38437 2.4443 5.60608 0.594076L5.0293 1.14844ZM15.7764 12.2588L15.1837 12.7962C15.2165 12.8323 15.2493 12.8686 15.2829 12.9059C15.3163 12.9429 15.3505 12.9809 15.3849 13.0188L15.9775 12.4814L16.5702 11.9441C16.5374 11.908 16.5046 11.8716 16.471 11.8343C16.4376 11.7973 16.4034 11.7594 16.369 11.7214L15.7764 12.2588ZM15.9775 12.4814L16.5702 13.0188C16.7935 12.7725 17.0186 12.542 17.246 12.31C17.4697 12.0817 17.6999 11.8476 17.9139 11.6116L17.3213 11.0742L16.7286 10.5369C16.5397 10.7452 16.3331 10.9555 16.1032 11.1901C15.877 11.4209 15.6317 11.6719 15.3849 11.9441L15.9775 12.4814ZM17.3213 11.0742L16.7717 11.6556C16.9942 11.8659 17.2023 12.0776 17.4219 12.3013C17.6387 12.522 17.867 12.7546 18.1145 12.9886L18.6641 12.4072L19.2136 11.8259C18.9911 11.6155 18.7831 11.4038 18.5634 11.1802C18.3467 10.9595 18.1183 10.7268 17.8709 10.4929L17.3213 11.0742ZM18.6641 12.4072L18.0976 11.8423C17.3589 12.5829 16.541 13.4097 15.7882 14.24L16.3809 14.7773L16.9735 15.3147C17.6981 14.5156 18.4919 13.7127 19.2305 12.9722L18.6641 12.4072ZM16.3809 14.7773L15.8101 15.3379C16.6495 16.1924 17.5661 17.2004 18.4542 18.0292L19 17.4443L19.5458 16.8595C18.6877 16.0586 17.8585 15.14 16.9516 14.2167L16.3809 14.7773ZM19 17.4443L18.3771 16.9423C17.8556 17.5894 17.4772 18.0056 17.0403 18.4187L17.5898 19L18.1394 19.5813C18.6426 19.1056 19.0699 18.6324 19.6229 17.9464L19 17.4443ZM17.5898 19L18.1606 18.4394C17.2852 17.5482 16.4231 16.6706 15.6298 15.7956L15.0371 16.333L14.4445 16.8704C15.2631 17.7732 16.1482 18.674 17.0191 19.5606L17.5898 19ZM15.0371 16.333L14.4683 15.7704C14.0584 16.1849 13.6664 16.5987 13.2898 16.9959C12.9111 17.3953 12.5486 17.7771 12.1875 18.1392L12.7539 18.7041L13.3203 19.269C13.698 18.8904 14.0742 18.494 14.4508 18.0968C14.8297 17.6973 15.2099 17.2959 15.6059 16.8956L15.0371 16.333ZM12.7539 18.7041L13.3466 18.1667C13.0999 17.8947 12.8547 17.6437 12.6285 17.4126C12.3987 17.1778 12.1919 16.9671 12.0028 16.7585L11.4102 17.2959L10.8175 17.8333C11.0314 18.0691 11.2614 18.3033 11.4852 18.5318C11.7126 18.7641 11.9378 18.995 12.1613 19.2415L12.7539 18.7041ZM11.4102 17.2959L12.0028 17.8333C12.1916 17.6251 12.3983 17.4146 12.6189 17.1902C12.835 16.9703 13.065 16.7365 13.2792 16.5003L12.6865 15.9629L12.0939 15.4255C11.9051 15.6337 11.6984 15.8442 11.4778 16.0686C11.2617 16.2885 11.0317 16.5223 10.8175 16.7585L11.4102 17.2959ZM12.6865 15.9629L13.2792 15.4255C13.2455 15.3883 13.2118 15.3512 13.1782 15.3143C13.1447 15.2773 13.1113 15.2406 13.078 15.2038L12.4854 15.7412L11.8927 16.2786C11.9264 16.3158 11.9601 16.3529 11.9936 16.3898C12.0272 16.4268 12.0606 16.4635 12.0939 16.5003L12.6865 15.9629ZM12.4854 15.7412L13.0569 15.1815C11.2451 13.3312 9.44969 11.4806 7.6528 9.62849C5.85633 7.77678 4.05836 5.92351 2.24346 4.07016L1.67188 4.62988L1.10029 5.18961C2.91216 7.03986 4.70754 8.89045 6.50443 10.7426C8.30089 12.5943 10.0989 14.4476 11.9138 16.3009L12.4854 15.7412ZM1.67188 4.62988L2.26453 4.09252C2.25208 4.07879 2.25863 4.08405 2.27173 4.10493C2.28697 4.12921 2.30564 4.16584 2.3197 4.2122C2.33328 4.25699 2.33652 4.2912 2.33727 4.30182C2.33751 4.30521 2.33711 4.30233 2.33711 4.25879H1.53711H0.737109C0.737109 4.30804 0.731094 4.48702 0.78854 4.67647C0.852647 4.8879 0.968939 5.04562 1.07922 5.16725L1.67188 4.62988ZM1.53711 4.25879H2.33711V1H1.53711H0.737109V4.25879H1.53711ZM1.53711 1V1.8H4.62695V1V0.2H1.53711V1ZM18.4629 4.33301H17.6629C17.6629 4.28423 17.6682 4.24696 17.6719 4.22595C17.6758 4.20355 17.6801 4.18716 17.6828 4.17777C17.688 4.15978 17.692 4.15118 17.6923 4.15065C17.6929 4.14937 17.694 4.14698 17.6971 4.14184C17.6991 4.13869 17.7108 4.11974 17.7355 4.09252L18.3281 4.62988L18.9208 5.16725C19.0282 5.04876 19.1029 4.91403 19.1491 4.81224C19.1857 4.73162 19.2629 4.54714 19.2629 4.33301H18.4629ZM18.3281 4.62988L17.751 4.07584C16.5662 5.30994 15.3262 6.52703 14.1759 7.79564L14.7686 8.33301L15.3612 8.87038C16.4943 7.62073 17.6723 6.46808 18.9052 5.18393L18.3281 4.62988ZM14.7686 8.33301L14.7678 7.53301C14.5997 7.53317 14.4239 7.58144 14.2697 7.69017C14.1232 7.79343 14.0385 7.92117 13.9913 8.01831C13.9063 8.19289 13.902 8.35043 13.9013 8.39434L14.7012 8.40723L15.5011 8.42011C15.5004 8.4593 15.4974 8.57976 15.4299 8.71843C15.3914 8.79761 15.3195 8.90769 15.1917 8.99776C15.0562 9.09331 14.9051 9.13288 14.7693 9.13301L14.7686 8.33301ZM14.7012 8.40723L15.2773 7.85219C14.7062 7.25941 14.1521 6.68509 13.5982 6.11102C13.0442 5.53689 12.4905 4.963 11.9199 4.37074L11.3438 4.92578L10.7676 5.48082C11.3387 6.0736 11.8928 6.64792 12.4468 7.22199C13.0007 7.79613 13.5545 8.37001 14.125 8.96227L14.7012 8.40723ZM11.3438 4.92578L11.348 5.72577C11.664 5.72408 11.8786 5.55825 11.9524 5.49754C12.0396 5.4259 12.1129 5.34287 12.1376 5.31569L11.5449 4.77832L10.9523 4.24095C10.9346 4.26045 10.9267 4.26904 10.9209 4.27498C10.9152 4.28086 10.9213 4.27394 10.9362 4.26167C10.95 4.25039 10.9876 4.22073 11.047 4.19216C11.1082 4.16271 11.209 4.12649 11.3395 4.12579L11.3438 4.92578ZM11.5449 4.77832L12.1211 5.33336C12.6872 4.74566 13.2708 4.15713 13.8591 3.56376C14.446 2.97184 15.0377 2.3751 15.6132 1.7777L15.0371 1.22266L14.461 0.667614C13.8948 1.25531 13.3113 1.84385 12.7229 2.43722C12.136 3.02913 11.5443 3.62588 10.9688 4.22328L11.5449 4.77832ZM15.0371 1.22266L15.6298 1.76002C15.5828 1.8118 15.5437 1.83356 15.5223 1.84369C15.4987 1.85489 15.4489 1.8742 15.3732 1.87422L15.373 1.07422L15.3729 0.274219C14.9845 0.274291 14.643 0.466299 14.4445 0.685289L15.0371 1.22266ZM15.373 1.07422V1.87422H18.4629V1.07422V0.274219H15.373V1.07422ZM18.4629 1.07422H17.6629V4.33301H18.4629H19.2629V1.07422H18.4629Z" fill="#96999E" mask="url(#path-1-inside-1_3_10353)"/>
</svg>
