<svg width="48" height="48" viewBox="0 0 48 48" fill="none" xmlns="http://www.w3.org/2000/svg">
<rect width="48" height="48" rx="24" fill="#161D22"/>
<path d="M24.3 28.5V33" stroke="white" stroke-width="1.19456" stroke-linejoin="round"/>
<path d="M18 28.5H30.6V26.916C30.5998 26.5811 30.5062 26.2529 30.3297 25.9683C30.1533 25.6837 29.9009 25.454 29.601 25.305L27.999 24.495C27.6991 24.346 27.4467 24.1163 27.2703 23.8317C27.0938 23.5471 27.0002 23.2189 27 22.884V18.6H27.9C28.3774 18.6 28.8352 18.4104 29.1728 18.0728C29.5104 17.7352 29.7 17.2774 29.7 16.8C29.7 16.3226 29.5104 15.8648 29.1728 15.5272C28.8352 15.1896 28.3774 15 27.9 15H20.7C20.2226 15 19.7648 15.1896 19.4272 15.5272C19.0896 15.8648 18.9 16.3226 18.9 16.8C18.9 17.2774 19.0896 17.7352 19.4272 18.0728C19.7648 18.4104 20.2226 18.6 20.7 18.6H21.6V22.884C21.5998 23.2189 21.5062 23.5471 21.3297 23.8317C21.1533 24.1163 20.9009 24.346 20.601 24.495L18.999 25.305C18.6991 25.454 18.4467 25.6837 18.2703 25.9683C18.0938 26.2529 18.0002 26.5811 18 26.916V28.5Z" stroke="white" stroke-width="1.19456" stroke-linejoin="round"/>
</svg>
