<svg width="20" height="20" viewBox="0 0 20 16" fill="none" xmlns="http://www.w3.org/2000/svg">
<path fill-rule="evenodd" clip-rule="evenodd" d="M7.74731 7.79433L10.0348 10.8171L7.92253 15.4H0.341797L3.97801 8.38731L4.68821 8.75556L1.65776 14.6H7.41037L9.10761 10.9176L7.10939 8.27709L7.74731 7.79433Z" fill="#96999E"/>
<path fill-rule="evenodd" clip-rule="evenodd" d="M5.82125 3.61429C4.56283 3.61429 3.54268 4.63444 3.54268 5.89286C3.54268 7.15128 4.56283 8.17143 5.82125 8.17143C7.07967 8.17143 8.09982 7.15128 8.09982 5.89286C8.09982 4.63444 7.07967 3.61429 5.82125 3.61429ZM2.74268 5.89286C2.74268 4.19261 4.121 2.81429 5.82125 2.81429C7.5215 2.81429 8.89982 4.19261 8.89982 5.89286C8.89982 7.5931 7.5215 8.97143 5.82125 8.97143C4.121 8.97143 2.74268 7.5931 2.74268 5.89286Z" fill="#96999E"/>
<path fill-rule="evenodd" clip-rule="evenodd" d="M13.9996 1.4C12.5637 1.4 11.3996 2.56406 11.3996 4C11.3996 5.43594 12.5637 6.6 13.9996 6.6C15.4355 6.6 16.5996 5.43594 16.5996 4C16.5996 2.56406 15.4355 1.4 13.9996 1.4ZM10.5996 4C10.5996 2.12223 12.1218 0.599998 13.9996 0.599998C15.8774 0.599998 17.3996 2.12223 17.3996 4C17.3996 5.87777 15.8774 7.4 13.9996 7.4C12.1218 7.4 10.5996 5.87777 10.5996 4Z" fill="#96999E"/>
<path fill-rule="evenodd" clip-rule="evenodd" d="M15.6064 6.26044L19.8401 15.4H8.98193L12.6027 6.28095L13.3463 6.57618L10.1603 14.6H18.5879L14.8805 6.5967L15.6064 6.26044Z" fill="#96999E"/>
</svg>
