<svg width="20" height="20" viewBox="0 0 18 20" fill="none" xmlns="http://www.w3.org/2000/svg">
<path d="M9.31382 1H8.91782C8.44043 1 7.9826 1.18964 7.64503 1.52721C7.30746 1.86477 7.11782 2.32261 7.11782 2.8V2.962C7.1175 3.27765 7.03417 3.58767 6.87621 3.86095C6.71824 4.13424 6.49119 4.36117 6.21782 4.519L5.83082 4.744C5.55719 4.90198 5.24679 4.98515 4.93082 4.98515C4.61486 4.98515 4.30446 4.90198 4.03082 4.744L3.89582 4.672C3.48278 4.43374 2.99208 4.3691 2.53142 4.49228C2.07077 4.61546 1.67782 4.91638 1.43882 5.329L1.24082 5.671C1.00256 6.08404 0.937921 6.57475 1.0611 7.0354C1.18428 7.49605 1.4852 7.889 1.89782 8.128L2.03282 8.218C2.30487 8.37506 2.53108 8.60058 2.68897 8.87215C2.84686 9.14372 2.93093 9.45187 2.93282 9.766V10.225C2.93408 10.5422 2.85151 10.8541 2.69346 11.1291C2.53542 11.4041 2.30751 11.6324 2.03282 11.791L1.89782 11.872C1.4852 12.111 1.18428 12.5039 1.0611 12.9646C0.937921 13.4253 1.00256 13.916 1.24082 14.329L1.43882 14.671C1.67782 15.0836 2.07077 15.3845 2.53142 15.5077C2.99208 15.6309 3.48278 15.5663 3.89582 15.328L4.03082 15.256C4.30446 15.098 4.61486 15.0148 4.93082 15.0148C5.24679 15.0148 5.55719 15.098 5.83082 15.256L6.21782 15.481C6.49119 15.6388 6.71824 15.8658 6.87621 16.139C7.03417 16.4123 7.1175 16.7223 7.11782 17.038V17.2C7.11782 17.6774 7.30746 18.1352 7.64503 18.4728C7.9826 18.8104 8.44043 19 8.91782 19H9.31382C9.79121 19 10.249 18.8104 10.5866 18.4728C10.9242 18.1352 11.1138 17.6774 11.1138 17.2V17.038C11.1141 16.7223 11.1975 16.4123 11.3554 16.139C11.5134 15.8658 11.7405 15.6388 12.0138 15.481L12.4008 15.256C12.6745 15.098 12.9849 15.0148 13.3008 15.0148C13.6168 15.0148 13.9272 15.098 14.2008 15.256L14.3358 15.328C14.7489 15.5663 15.2396 15.6309 15.7002 15.5077C16.1609 15.3845 16.5538 15.0836 16.7928 14.671L16.9908 14.32C17.2291 13.907 17.2937 13.4163 17.1705 12.9556C17.0474 12.4949 16.7464 12.102 16.3338 11.863L16.1988 11.791C15.9241 11.6324 15.6962 11.4041 15.5382 11.1291C15.3801 10.8541 15.2976 10.5422 15.2988 10.225V9.775C15.2976 9.45782 15.3801 9.14594 15.5382 8.87094C15.6962 8.59594 15.9241 8.36759 16.1988 8.209L16.3338 8.128C16.7464 7.889 17.0474 7.49605 17.1705 7.0354C17.2937 6.57475 17.2291 6.08404 16.9908 5.671L16.7928 5.329C16.5538 4.91638 16.1609 4.61546 15.7002 4.49228C15.2396 4.3691 14.7489 4.43374 14.3358 4.672L14.2008 4.744C13.9272 4.90198 13.6168 4.98515 13.3008 4.98515C12.9849 4.98515 12.6745 4.90198 12.4008 4.744L12.0138 4.519C11.7405 4.36117 11.5134 4.13424 11.3554 3.86095C11.1975 3.58767 11.1141 3.27765 11.1138 2.962V2.8C11.1138 2.32261 10.9242 1.86477 10.5866 1.52721C10.249 1.18964 9.79121 1 9.31382 1Z" stroke="#6D6E6E" stroke-linecap="round" stroke-linejoin="round"/>
<path d="M9.11583 12.7C10.607 12.7 11.8158 11.4912 11.8158 9.99999C11.8158 8.50882 10.607 7.29999 9.11583 7.29999C7.62466 7.29999 6.41583 8.50882 6.41583 9.99999C6.41583 11.4912 7.62466 12.7 9.11583 12.7Z" stroke="#6D6E6E" stroke-linecap="round" stroke-linejoin="round"/>
</svg>
